<mxfile host="app.diagrams.net" modified="2022-05-21T13:06:20.789Z" agent="5.0 (Windows NT 10.0; Win64; x64) AppleWebKit/537.36 (KHTML, like Gecko) Chrome/101.0.4951.54 Safari/537.36" etag="5-f-oxgd44K4mnflvJ2z" version="18.0.4" type="github">
  <diagram id="pf3MefIdUjdGJpEtNJun" name="第 1 页">
    <mxGraphModel dx="730" dy="327" grid="0" gridSize="10" guides="1" tooltips="1" connect="1" arrows="1" fold="1" page="1" pageScale="1" pageWidth="827" pageHeight="1169" math="0" shadow="0">
      <root>
        <mxCell id="0" />
        <mxCell id="1" parent="0" />
        <mxCell id="VGpgFT32VqMawX2vZReu-1" value="" style="rounded=1;whiteSpace=wrap;html=1;fillColor=#f0a30a;fontColor=#000000;strokeColor=#BD7000;" vertex="1" parent="1">
          <mxGeometry x="285" y="200" width="200" height="100" as="geometry" />
        </mxCell>
        <mxCell id="VGpgFT32VqMawX2vZReu-2" value="&lt;font color=&quot;#000000&quot;&gt;交换机&lt;/font&gt;" style="rounded=0;whiteSpace=wrap;html=1;fillColor=#60a917;strokeColor=#2D7600;fontColor=#ffffff;" vertex="1" parent="1">
          <mxGeometry x="290" y="235" width="60" height="25" as="geometry" />
        </mxCell>
        <mxCell id="VGpgFT32VqMawX2vZReu-3" value="RabbitMQ服务器" style="text;html=1;align=center;verticalAlign=middle;resizable=0;points=[];autosize=1;strokeColor=none;fillColor=none;" vertex="1" parent="1">
          <mxGeometry x="330" y="160" width="110" height="20" as="geometry" />
        </mxCell>
        <mxCell id="VGpgFT32VqMawX2vZReu-4" value="&lt;font color=&quot;#000000&quot;&gt;邮件消息队列&lt;/font&gt;" style="rounded=1;whiteSpace=wrap;html=1;fillColor=#1ba1e2;fontColor=#ffffff;strokeColor=#006EAF;" vertex="1" parent="1">
          <mxGeometry x="400" y="233.75" width="80" height="27.5" as="geometry" />
        </mxCell>
        <mxCell id="VGpgFT32VqMawX2vZReu-7" value="" style="endArrow=classic;html=1;rounded=0;fontColor=#000000;exitX=1;exitY=0.5;exitDx=0;exitDy=0;entryX=0;entryY=0.5;entryDx=0;entryDy=0;" edge="1" parent="1" source="VGpgFT32VqMawX2vZReu-2" target="VGpgFT32VqMawX2vZReu-4">
          <mxGeometry width="50" height="50" relative="1" as="geometry">
            <mxPoint x="350" y="252" as="sourcePoint" />
            <mxPoint x="400" y="248" as="targetPoint" />
          </mxGeometry>
        </mxCell>
        <mxCell id="VGpgFT32VqMawX2vZReu-8" value="推广子系统" style="rounded=1;whiteSpace=wrap;html=1;fillColor=#b1ddf0;strokeColor=#10739e;" vertex="1" parent="1">
          <mxGeometry x="120" y="203.75" width="100" height="30" as="geometry" />
        </mxCell>
        <mxCell id="VGpgFT32VqMawX2vZReu-9" value="短链子系统" style="rounded=1;whiteSpace=wrap;html=1;fillColor=#b1ddf0;strokeColor=#10739e;" vertex="1" parent="1">
          <mxGeometry x="120" y="260" width="100" height="30" as="geometry" />
        </mxCell>
        <mxCell id="VGpgFT32VqMawX2vZReu-13" value="" style="endArrow=classic;html=1;rounded=0;fontColor=#000000;entryX=0;entryY=0.5;entryDx=0;entryDy=0;" edge="1" parent="1" target="VGpgFT32VqMawX2vZReu-2">
          <mxGeometry width="50" height="50" relative="1" as="geometry">
            <mxPoint x="220" y="220" as="sourcePoint" />
            <mxPoint x="270" y="170" as="targetPoint" />
          </mxGeometry>
        </mxCell>
        <mxCell id="VGpgFT32VqMawX2vZReu-15" value="" style="endArrow=classic;html=1;rounded=0;fontColor=#000000;entryX=0;entryY=0.75;entryDx=0;entryDy=0;" edge="1" parent="1" target="VGpgFT32VqMawX2vZReu-2">
          <mxGeometry width="50" height="50" relative="1" as="geometry">
            <mxPoint x="220" y="273.79" as="sourcePoint" />
            <mxPoint x="290" y="239.99999999999991" as="targetPoint" />
          </mxGeometry>
        </mxCell>
        <mxCell id="VGpgFT32VqMawX2vZReu-16" value="生产者" style="text;html=1;align=center;verticalAlign=middle;resizable=0;points=[];autosize=1;strokeColor=none;fillColor=none;fontColor=#000000;" vertex="1" parent="1">
          <mxGeometry x="145" y="160" width="50" height="20" as="geometry" />
        </mxCell>
        <mxCell id="VGpgFT32VqMawX2vZReu-17" value="邮件消费者" style="rounded=1;whiteSpace=wrap;html=1;fillColor=#b1ddf0;strokeColor=#10739e;" vertex="1" parent="1">
          <mxGeometry x="520" y="232.5" width="100" height="30" as="geometry" />
        </mxCell>
        <mxCell id="VGpgFT32VqMawX2vZReu-18" value="" style="endArrow=classic;html=1;rounded=0;fontColor=#000000;entryX=0;entryY=0.5;entryDx=0;entryDy=0;" edge="1" parent="1" target="VGpgFT32VqMawX2vZReu-17">
          <mxGeometry width="50" height="50" relative="1" as="geometry">
            <mxPoint x="480" y="248.75" as="sourcePoint" />
            <mxPoint x="530" y="198.75" as="targetPoint" />
          </mxGeometry>
        </mxCell>
        <mxCell id="VGpgFT32VqMawX2vZReu-19" value="消费者" style="text;html=1;align=center;verticalAlign=middle;resizable=0;points=[];autosize=1;strokeColor=none;fillColor=none;fontColor=#000000;" vertex="1" parent="1">
          <mxGeometry x="535" y="170" width="50" height="20" as="geometry" />
        </mxCell>
        <mxCell id="VGpgFT32VqMawX2vZReu-20" value="iRedMail邮件服务器" style="rounded=1;whiteSpace=wrap;html=1;fillColor=#b1ddf0;strokeColor=#10739e;" vertex="1" parent="1">
          <mxGeometry x="520" y="295" width="109" height="30" as="geometry" />
        </mxCell>
        <mxCell id="VGpgFT32VqMawX2vZReu-21" value="" style="endArrow=classic;html=1;rounded=0;fontColor=#000000;" edge="1" parent="1">
          <mxGeometry width="50" height="50" relative="1" as="geometry">
            <mxPoint x="565" y="262.5" as="sourcePoint" />
            <mxPoint x="565" y="291" as="targetPoint" />
          </mxGeometry>
        </mxCell>
      </root>
    </mxGraphModel>
  </diagram>
</mxfile>
